<svg xmlns="http://www.w3.org/2000/svg" fill="none" stroke="#000" opacity=".4" viewBox="0 0 595.28 841.89"><g stroke-miterlimit="10" stroke-width="5"><path d="M410.82 377.48c5.34 11.52 92.1-149.82 36.1-153.53-16.34 10.97-74.92 48.47-77.03 48.63"/><path d="M400.43 380.64c-12.87-2.32-18.95-33.84-30.5-50.86 4.78-31.08.07-44.35-1.5-77.9-9.23-17.44-142.83 24.78-175.36 14.8-1.06-.25-26.56-3.92-33.78.9-2.38 2.32 2.2 8.05.23 10.8-2.08 2.9-11.24-2.68-12.52 1.94-2.38 30.05 6 60.22-5.3 79.57-15.12 27.6 14.76 20.7 13.74 45.2-.67 21.5 12 27.84 26.56 42.57 2.14 2.6 2.04 3.13 3.77 4.68 13.28 8.8 2.14 10.83 26.1 20.08 30.86 8.27 25.73 21.4 57.36 18.57 25.9-.04 29.6 4.85 48.45-4.53 33.02-15.9 53.9-37.13 53.9-37.13 20.67-31.2 62.5-85.74 28.85-68.7zM185.2 334.28c6.45 0 6.43 10 0 10-6.45 0-6.44-10 0-10zm.6 75.5c-6.45 0-6.43-10 0-10 6.45 0 6.44 10 0 10zm.6-32.6c-6.45 0-6.43-10 0-10 6.44 0 6.43 10 0 10zm53.73-45.32c6.45 0 6.43 10 0 10-6.44 0-6.43-10 0-10zm-29.88 101.47c-6.45 0-6.43-10 0-10 6.44 0 6.43 10 0 10zm21.43-25.96c-6.45 0-6.43-10 0-10 6.44 0 6.43 10 0 10zm8.75-31.7c-6.45 0-6.43-10 0-10 6.45 0 6.44 10 0 10zm31.1 57.06c-6.45 0-6.43-10 0-10 6.44 0 6.43 10 0 10zm17.5-105.7c6.45 0 6.43 10 0 10-6.45 0-6.44-10 0-10zm-.6 75.5c-6.45 0-6.43-10 0-10 6.45 0 6.44 10 0 10zm4.53-28.98c-6.45 0-6.43-10 0-10 6.45 0 6.44 10 0 10zm20.83 54.03c-6.45 0-6.43-10 0-10 6.45 0 6.44 10 0 10z"/></g><path stroke-miterlimit="10" stroke-width="4" d="M145.3 289.1l224.14-22.92m1.16 16.05l-225.32 22"/></svg>